<svg width="13" height="12" viewBox="0 0 13 12" fill="none" xmlns="http://www.w3.org/2000/svg">
<path d="M10.2632 9.47368C10.6261 9.47368 10.9741 9.60677 11.2308 9.84365C11.4874 10.0805 11.6316 10.4018 11.6316 10.7368C11.6316 11.0719 11.4874 11.3931 11.2308 11.63C10.9741 11.8669 10.6261 12 10.2632 12C9.90023 12 9.55217 11.8669 9.29554 11.63C9.03891 11.3931 8.89474 11.0719 8.89474 10.7368C8.89474 10.4018 9.03891 10.0805 9.29554 9.84365C9.55217 9.60677 9.90023 9.47368 10.2632 9.47368ZM10.2632 10.1053C10.0817 10.1053 9.90766 10.1718 9.77935 10.2902C9.65103 10.4087 9.57895 10.5693 9.57895 10.7368C9.57895 10.9043 9.65103 11.065 9.77935 11.1834C9.90766 11.3019 10.0817 11.3684 10.2632 11.3684C10.4446 11.3684 10.6187 11.3019 10.747 11.1834C10.8753 11.065 10.9474 10.9043 10.9474 10.7368C10.9474 10.5693 10.8753 10.4087 10.747 10.2902C10.6187 10.1718 10.4446 10.1053 10.2632 10.1053ZM4.10526 9.47368C4.46819 9.47368 4.81625 9.60677 5.07288 9.84365C5.32951 10.0805 5.47368 10.4018 5.47368 10.7368C5.47368 11.0719 5.32951 11.3931 5.07288 11.63C4.81625 11.8669 4.46819 12 4.10526 12C3.74234 12 3.39427 11.8669 3.13764 11.63C2.88101 11.3931 2.73684 11.0719 2.73684 10.7368C2.73684 10.4018 2.88101 10.0805 3.13764 9.84365C3.39427 9.60677 3.74234 9.47368 4.10526 9.47368ZM4.10526 10.1053C3.9238 10.1053 3.74977 10.1718 3.62145 10.2902C3.49314 10.4087 3.42105 10.5693 3.42105 10.7368C3.42105 10.9043 3.49314 11.065 3.62145 11.1834C3.74977 11.3019 3.9238 11.3684 4.10526 11.3684C4.28673 11.3684 4.46076 11.3019 4.58907 11.1834C4.71739 11.065 4.78947 10.9043 4.78947 10.7368C4.78947 10.5693 4.71739 10.4087 4.58907 10.2902C4.46076 10.1718 4.28673 10.1053 4.10526 10.1053ZM11.6316 1.89474H2.23737L3.98211 5.68421H9.57895C9.80474 5.68421 10.0032 5.58316 10.1263 5.43158L12.1789 2.90526C12.2679 2.79789 12.3158 2.66526 12.3158 2.52632C12.3158 2.35881 12.2437 2.19817 12.1154 2.07972C11.9871 1.96128 11.813 1.89474 11.6316 1.89474ZM9.57895 6.31579H4.01632L3.48947 7.30105L3.42105 7.57895C3.42105 7.74645 3.49314 7.9071 3.62145 8.02554C3.74977 8.14399 3.9238 8.21053 4.10526 8.21053H11.6316V8.84211H4.10526C3.74234 8.84211 3.39427 8.70902 3.13764 8.47213C2.88101 8.23525 2.73684 7.91396 2.73684 7.57895C2.73664 7.36465 2.7955 7.15383 2.90789 6.96632L3.40053 6.0379L0.916842 0.631579H0V0H1.36842L1.95 1.26316H11.6316C11.9945 1.26316 12.3426 1.39624 12.5992 1.63313C12.8558 1.87002 13 2.19131 13 2.52632C13 2.84211 12.8837 3.10737 12.6921 3.32211L10.7011 5.77895C10.4547 6.10105 10.0442 6.31579 9.57895 6.31579Z" fill="white"/>
</svg>
