

    <svg width="95" height="33" viewBox="0 0 95 33" fill="none" xmlns="http://www.w3.org/2000/svg">
<path d="M0.5 16.5C0.5 7.66344 7.66344 0.5 16.5 0.5H78.5C87.3365 0.5 94.5 7.66344 94.5 16.5C94.5 25.3366 87.3366 32.5 78.5 32.5H16.5C7.66345 32.5 0.5 25.3366 0.5 16.5Z" stroke="#D71A1A"/>
<g clipPath="url(#clip0_25_1150)">
<path d="M18.5 17H12.5C12.3674 17 12.2402 16.9473 12.1464 16.8536C12.0527 16.7598 12 16.6326 12 16.5C12 16.3674 12.0527 16.2402 12.1464 16.1464C12.2402 16.0527 12.3674 16 12.5 16H18.5C18.6326 16 18.7598 16.0527 18.8536 16.1464C18.9473 16.2402 19 16.3674 19 16.5C19 16.6326 18.9473 16.7598 18.8536 16.8536C18.7598 16.9473 18.6326 17 18.5 17Z" fill="#D71A1A"/>
</g>
<path d="M44.054 22V21.1051L47.4148 17.4261C47.8092 16.9953 48.134 16.6207 48.3892 16.3026C48.6444 15.9811 48.8333 15.6795 48.956 15.3977C49.0819 15.1127 49.1449 14.8144 49.1449 14.5028C49.1449 14.1449 49.0587 13.835 48.8864 13.5732C48.7173 13.3113 48.4853 13.1091 48.1903 12.9666C47.8954 12.8241 47.5639 12.7528 47.196 12.7528C46.8049 12.7528 46.4635 12.834 46.1719 12.9964C45.8835 13.1555 45.6598 13.3793 45.5007 13.6676C45.3449 13.956 45.267 14.294 45.267 14.6818H44.0938C44.0938 14.0852 44.2313 13.5616 44.5064 13.1108C44.7815 12.66 45.156 12.3087 45.63 12.0568C46.1072 11.8049 46.6425 11.679 47.2358 11.679C47.8324 11.679 48.361 11.8049 48.8217 12.0568C49.2824 12.3087 49.6437 12.6484 49.9055 13.076C50.1674 13.5036 50.2983 13.9792 50.2983 14.5028C50.2983 14.8774 50.2304 15.2436 50.0945 15.6016C49.9619 15.9562 49.7299 16.3523 49.3984 16.7898C49.0703 17.224 48.6146 17.7543 48.0312 18.3807L45.7443 20.8267V20.9062H50.4773V22H44.054Z" fill="#D71A1A"/>
<g clipPath="url(#clip1_25_1150)">
<path d="M82.5 17H80V19.5C80 19.6326 79.9473 19.7598 79.8536 19.8536C79.7598 19.9473 79.6326 20 79.5 20C79.3674 20 79.2402 19.9473 79.1464 19.8536C79.0527 19.7598 79 19.6326 79 19.5V17H76.5C76.3674 17 76.2402 16.9473 76.1464 16.8536C76.0527 16.7598 76 16.6326 76 16.5C76 16.3674 76.0527 16.2402 76.1464 16.1464C76.2402 16.0527 76.3674 16 76.5 16H79V13.5C79 13.3674 79.0527 13.2402 79.1464 13.1464C79.2402 13.0527 79.3674 13 79.5 13C79.6326 13 79.7598 13.0527 79.8536 13.1464C79.9473 13.2402 80 13.3674 80 13.5V16H82.5C82.6326 16 82.7598 16.0527 82.8536 16.1464C82.9473 16.2402 83 16.3674 83 16.5C83 16.6326 82.9473 16.7598 82.8536 16.8536C82.7598 16.9473 82.6326 17 82.5 17Z" fill="#D71A1A"/>
</g>
<defs>
<clipPath id="clip0_25_1150">
<rect width="7" height="1" fill="white" transform="translate(12 16)"/>
</clipPath>
<clipPath id="clip1_25_1150">
<rect width="7" height="7" fill="white" transform="translate(76 13)"/>
</clipPath>
</defs>
</svg>

